<svg width="119" height="125" viewBox="0 0 119 125" fill="none" xmlns="http://www.w3.org/2000/svg">
<path d="M100.629 29C102.486 29 104 30.5723 104 32.5C104 34.4277 102.486 36 100.629 36H63.3714C61.5144 36 60 34.4277 60 32.5C60 30.5723 61.5145 29 63.3714 29H100.629Z" fill="black"/>
<path d="M100.629 71C102.486 71 104 72.3477 104 74C104 75.6523 102.486 77 100.629 77H63.3714C61.5144 77 60 75.6523 60 74C60 72.3477 61.5145 71 63.3714 71H100.629Z" fill="black"/>
<path d="M93.6207 42C95.482 42 97 43.5723 97 45.5C97 47.4278 95.4819 49 93.6207 49H63.3793C61.518 49 60 47.4277 60 45.5C60 43.5722 61.5181 42 63.3793 42H93.6207Z" fill="black"/>
<path d="M93.6207 84C95.482 84 97 85.5723 97 87.5C97 89.4278 95.4819 91 93.6207 91H63.3793C61.518 91 60 89.4277 60 87.5C60 85.5722 61.5181 84 63.3793 84H93.6207Z" fill="black"/>
<path d="M17.4755 119.166C19.4714 119.166 20.4727 118.001 22.2994 115.833C24.1329 113.502 26.6294 110.169 31.6224 110.169C36.6154 110.169 39.1119 113.333 40.9453 115.833C42.6097 118.001 43.6109 119.166 45.7692 119.166C47.9342 119.166 48.7664 118.001 50.5931 115.833C52.4266 113.502 54.9231 110.169 59.9161 110.169C64.9091 110.169 67.4056 113.333 69.239 115.833C70.9034 118.001 71.9046 119.166 74.0629 119.166C76.2279 119.166 77.0601 118.001 78.8868 115.833C80.7203 113.502 83.2168 110.169 88.2098 110.169C93.2028 110.169 95.6993 113.333 97.5327 115.833C99.1971 118.001 100.198 119.166 102.357 119.166C104.522 119.166 105.354 118.001 107.181 115.833C108.676 113.997 110.509 111.666 113.669 110.663L113.675 7.83409C113.675 6.72948 112.78 5.83397 111.675 5.83397H8.48876C7.38419 5.83397 6.48876 6.7294 6.48876 7.83397V110.663C9.48589 111.666 11.3127 113.997 12.8146 115.833C14.4789 118.001 15.4802 119.166 17.6385 119.166H17.4755ZM117 0C118.105 0 119 0.89543 119 2V114.003C119 115.107 118.105 116.003 117 116.003H116.172C114.176 116.003 113.175 117.168 111.348 119.336C109.515 121.667 106.856 125 102.025 125C97.2012 125 94.5356 121.836 92.7022 119.336C91.0378 117.168 90.0366 116.003 87.8782 116.003C85.7133 116.003 84.8811 117.168 83.0543 119.336C81.2209 121.667 78.7244 125 73.7314 125C68.7384 125 66.2419 121.836 64.4085 119.336C62.575 117.168 61.5804 116.003 59.5845 116.003C57.5887 116.003 56.5874 117.168 54.7606 119.336C52.9272 121.667 50.4307 125 45.4377 125C40.4447 125 37.9482 121.836 36.1148 119.336C34.2813 117.168 33.4492 116.003 31.2908 116.003C29.1259 116.003 28.2937 117.168 26.4669 119.336C24.6335 121.667 22.137 125 17.144 125C12.151 125 9.65448 121.836 7.82105 119.336C5.98761 117.168 4.99301 116.003 2.99714 116.003H2C0.89543 116.003 0 115.107 0 114.003V2C0 0.895434 0.895431 0 2 0H117Z" fill="black"/>
<path d="M47.4019 24.1722C48.875 24.1722 50.028 25.3571 50.028 26.8863V27.7336L52.6542 25.0195C53.6406 24.0001 55.2803 24.0001 56.2602 25.0195C57.2466 26.0389 57.2466 27.7336 56.2602 28.7463L50.028 35.1871V51.2859C50.028 52.8084 48.8815 54 47.4019 54H23.6262C22.153 54 21 52.8151 21 51.2859V26.7141C21 25.1916 22.1465 24 23.6262 24H47.4019V24.1722ZM26.0857 35.6969C27.0721 34.8496 28.5453 34.8496 29.5317 35.6969L35.7639 42.3031L44.7823 32.9828V29.4214H26.0929V35.5247L26.0857 35.6969ZM33.9504 47.8967L26.0857 39.7612V48.744H44.7751V40.6085L37.563 47.8967C37.0698 48.4064 36.4237 48.4072 35.7639 48.4072C35.1106 48.4072 34.4436 48.5719 33.9504 47.8967Z" fill="black"/>
<path d="M47.4019 66.1664C48.875 66.1664 50.028 67.3118 50.028 68.79V69.6091L52.6542 66.9855C53.6406 66.0001 55.2803 66.0001 56.2602 66.9855C57.2466 67.9709 57.2466 69.6091 56.2602 70.5881L50.028 76.8142V92.3764C50.028 93.8481 48.8815 95 47.4019 95H23.6262C22.153 95 21 93.8546 21 92.3764V68.6236C21 67.1519 22.1465 66 23.6262 66H47.4019V66.1664ZM26.0857 77.307C27.0721 76.4879 28.5453 76.4879 29.5317 77.4733L35.7639 83.8594L44.7823 74.8497V71.407H26.0929V77.3069L26.0857 77.307ZM33.9576 89.1001L26.0857 81.2358V89.9192H44.7751V82.0549L37.563 89.26C37.0698 89.7527 36.4237 89.7858 35.7639 89.7858C35.1106 89.7858 34.4509 89.5929 33.9576 89.1001Z" fill="black"/>
</svg>
