<svg width="90" height="80" viewBox="0 0 90 80" fill="none" xmlns="http://www.w3.org/2000/svg">
<path d="M25.4385 47.7524C24.3293 47.7524 23.432 48.655 23.4385 49.7641L23.6032 77.8981C23.6096 78.9946 24.4977 79.8815 25.5943 79.8863L33.5402 79.9216C34.6482 79.9265 35.5491 79.0296 35.5491 77.9216V54.6208C35.5491 53.5162 36.4445 52.6208 37.5491 52.6208H74.6531C75.7576 52.6208 76.6531 53.5162 76.6531 54.6208V77.9225C76.6531 79.0302 77.5534 79.9269 78.6611 79.9225L87.8964 79.8855C88.9979 79.8811 89.8884 78.987 89.8884 77.8855V49.7524C89.8884 48.6479 88.993 47.7524 87.8884 47.7524H25.4385Z" fill="black"/>
<path d="M23.3892 41.3484L23.4102 44.9343H89.8884V41.377C89.8884 31.3032 81.7222 23.1369 71.6484 23.1369H41.6736C39.0171 23.1369 36.4324 22.2734 34.3093 20.6765L27.6775 15.6885C27.6775 15.6885 28.2488 5.40601 24.4443 0.505982C23.7285 -0.416076 22.2585 -0.00628638 22.1558 1.15649C21.7993 5.18207 20.8928 12.9847 19.0442 15.9424C19.0442 15.9424 12.0669 10.4602 10.2056 4.73633C9.90771 3.82019 8.56445 3.90021 8.36865 4.84351C7.62988 8.40173 7.74609 13.9488 12.4421 20.2591C12.4421 20.2591 8.2854 21.6362 6 29C6 29 0 35.4944 0 41.5886C0 41.5886 4.15601 48.4892 15.1855 37.8355C16.0564 36.9942 17.2148 36.5101 18.4258 36.5101H18.5112C21.1973 36.5101 23.3735 38.6717 23.3892 41.3484ZM71.4788 30.7842L73.7266 26.2296L75.9746 30.7842L81.001 31.5146L77.3638 35.0599L78.2224 40.0659L73.7266 37.7024L69.231 40.0659L70.0896 35.0599L66.4524 31.5146L71.4788 30.7842ZM51.9358 30.7842L54.1836 26.2296L56.4314 30.7842L61.4578 31.5146L57.8208 35.0599L58.6792 40.0659L54.1836 37.7024L49.688 40.0659L50.5464 35.0599L46.9094 31.5146L51.9358 30.7842ZM32.3926 30.7842L34.6406 26.2296L36.8884 30.7842L41.9148 31.5146L38.2776 35.0599L39.1362 40.0659L34.6406 37.7024L30.1448 40.0659L31.0034 35.0599L27.3665 31.5146L32.3926 30.7842Z" fill="black"/>
</svg>
