<svg width="96" height="86" viewBox="0 0 96 86" fill="none" xmlns="http://www.w3.org/2000/svg">
<path d="M90.0001 62.6055C88.8956 62.6055 88.0001 63.5009 88.0001 64.6055V73.3564C88.0001 74.8696 86.6932 76.0562 85.1774 75.9192C83.8444 75.7986 82.8236 74.6873 82.8236 73.3564V37C82.8236 35.8954 81.9282 35 80.8236 35H2C0.895429 35 0 35.8954 0 37V84C0 85.1046 0.895431 86 2 86H15.4116C16.5161 86 17.4116 85.1046 17.4116 84V66.477C17.4116 65.3725 18.307 64.477 19.4116 64.477H41.1372C42.2418 64.477 43.1372 65.3725 43.1372 66.477V84C43.1372 85.1046 44.0326 86 45.1372 86H58.5219C59.6265 86 60.5219 85.1046 60.5219 84V53.3761C60.5219 52.2716 61.4424 51.3434 62.4845 51.7096C64.5933 52.4505 66.1657 54.3536 66.3871 56.6822L68.0004 73.6384C68.667 80.6462 74.5852 86 81.665 86H82.2745C89.855 86 96 79.8901 96 72.3532V64.6055C96 63.5009 95.1046 62.6055 94 62.6055H90.0001Z" fill="black"/>
<path d="M52.8969 0H30.1031C13.4777 0 0 13.718 0 30.64V32H83V30.64C83 13.718 69.5223 0 52.8969 0ZM23.5939 26.88L18.0774 23.9282L12.5613 26.88L13.6149 20.628L9.15196 16.2004L15.3194 15.2882L18.0774 9.59998L20.8358 15.2882L27.0029 16.2004L22.5403 20.628L23.5939 26.88ZM47.5733 26.88L42.0572 23.9282L36.5407 26.88L37.5943 20.628L33.1317 16.2004L39.2991 15.2882L42.0572 9.59998L44.8153 15.2882L50.9827 16.2004L46.5198 20.628L47.5733 26.88ZM71.5531 26.88L66.0366 23.9282L60.5205 26.88L61.574 20.628L57.1111 16.2004L63.2785 15.2882L66.0366 9.59998L68.7947 15.2882L74.9621 16.2004L70.4992 20.628L71.5531 26.88Z" fill="black"/>
</svg>
