<svg width="37" height="90" viewBox="0 0 37 90" fill="none" xmlns="http://www.w3.org/2000/svg">
<path d="M36.3438 41.6288L31.7422 39.1171C31.4532 38.9569 31.1133 38.9178 30.793 39.0155C30.4727 39.1053 30.2149 39.3241 30.0548 39.6171L28.4532 42.578C27.2814 41.6366 26.082 39.8671 25.1329 37.6288C24.3439 35.7577 22.1445 34.9804 20.8712 34.6796L20.9493 31.1679C21.1485 30.7069 21.3087 30.2186 21.3907 29.6874C21.4688 29.6756 21.5313 29.6678 21.5821 29.6483C21.9102 29.5585 22.1837 29.3475 22.3321 29.0467C22.4415 28.828 22.4923 28.5467 22.5118 28.246L23.8829 28.1874C24.4336 28.1561 24.8634 27.6991 24.8321 27.1483C24.8009 26.5974 24.3438 26.1678 23.793 26.199L22.3242 26.2694C22.2461 25.7498 22.0156 25.121 21.5742 24.5311L22.9648 23.1717C23.3554 22.781 23.3632 22.1522 22.9843 21.7615C22.5938 21.3708 21.9648 21.363 21.5742 21.7419L20.0547 23.2224C19.5039 22.9334 18.8358 22.7107 18.0352 22.6013V20.2107C18.0352 19.66 17.5859 19.2107 17.0352 19.2107C16.4844 19.2107 16.0352 19.66 16.0352 20.2107V22.5896C15.047 22.7185 14.2734 23.0701 13.6836 23.5193L12.1524 22.0974C11.7422 21.7263 11.1132 21.7459 10.7422 22.156C10.3711 22.5662 10.3906 23.1951 10.8008 23.5662L12.4297 25.0662C12.2187 25.4959 12.1015 25.9256 12.039 26.2967H10.4882C9.54691 23.1483 8.3398 18.9256 7.93744 16.7967V10.5975H8.49603C9.61703 10.5975 10.5272 9.68736 10.5272 8.56632V7.6757C10.5272 6.5546 9.61697 5.6445 8.49603 5.6445H8.48431C8.84366 4.74606 8.73429 3.9062 8.63274 3.1562C8.56244 2.59761 8.49214 2.0585 8.59369 1.4492L8.83196 0L7.40227 0.30859C7.2304 0.347652 3.34364 1.21875 2.96087 4.33979C2.90228 4.85151 2.94135 5.2812 3.05071 5.66789H2.4726C1.3516 5.66789 0.4414 6.57805 0.4414 7.69909V8.58972C0.4414 9.35925 0.882863 10.0311 1.5195 10.3709C1.44138 10.4217 1.34761 10.449 1.2695 10.4998C0.691429 10.9217 0 11.781 0 13.4686C0 15.4569 1.32042 17.0077 2.73829 17.6678L2.07783 16.2501C2.07783 16.8282 2.37865 17.3399 2.84736 17.6915C3.21841 19.8907 4.2891 25.2381 4.65622 27.3592C3.7149 28.6678 1.17591 32.7186 3.21483 35.4686C3.69525 36.1092 4.22657 37.9295 4.73432 39.6874C5.1132 40.996 5.51561 42.3593 5.98432 43.6679C6.79284 45.8984 6.48429 47.8398 6.18354 49.707C5.93356 51.2461 5.7031 52.6953 6.07416 54.207C6.41397 55.5976 6.2929 56.9179 6.19525 58.0781C6.15619 58.4766 6.12494 58.8477 6.11713 59.1875C6.06635 60.4687 6.98828 61.3984 7.68742 61.918C7.35933 63.1172 6.8476 65.6289 6.99602 69.1992C7.04679 70.3984 6.74599 72.3086 6.4257 74.3203C5.8242 78.1094 5.25391 81.7187 6.4257 83.4492C6.2265 83.8594 5.98428 84.2305 5.80462 84.4883H2.84372C2.53516 84.4883 2.29294 84.7383 2.29294 85.0391V89.1094C2.29294 89.418 2.54297 89.6602 2.84372 89.6602H32.9137C33.2222 89.6602 33.4645 89.4102 33.4645 89.1094V85.0977C33.4645 84.7969 33.2144 84.5469 32.9137 84.5469L29.1637 84.5352C28.9606 81.918 28.6207 73.2772 28.402 66.8472C28.773 66.2769 29.1325 65.6988 29.5036 65.1284L30.1246 64.8667C30.1246 64.8667 30.234 64.8276 30.2145 64.7183L30.1051 64.0464C30.0934 63.9956 29.3434 59.4253 28.8942 56.4566C29.0231 56.4956 29.1559 56.5269 29.2848 56.5269C29.7457 56.5269 30.195 56.2652 30.4137 55.8277L32.484 51.6285C32.6559 51.6597 32.8356 51.6871 33.0348 51.6871C34.5347 51.6871 35.9957 49.6988 36.2067 48.4059C36.3551 47.5074 35.8785 46.695 35.445 46.1754L36.8669 43.2848C37.1637 42.6754 36.9336 41.9491 36.3438 41.6288ZM4.93389 4.57776C5.04326 3.68714 5.84411 3.08946 6.57449 2.72616C6.59402 2.97616 6.62527 3.21444 6.65261 3.4371C6.76198 4.28866 6.80103 4.7183 6.49245 5.2066C6.28153 5.53472 5.7307 5.69488 5.33225 5.55816C5.21117 5.49566 4.83234 5.36682 4.93389 4.57776ZM27.5039 44.3668L25.2227 48.7652L25.3242 49.1363C25.3359 49.1753 26.4454 53.4448 26.8633 56.3354C27.1914 58.5971 27.754 62.0543 28.0039 63.5855C23.5434 65.5152 18.543 68.105 18.3633 70.0464C18.2227 71.5776 19.1915 72.1948 19.7735 72.5152C19.2033 72.8941 17.9844 73.4566 17.1133 73.8549C15.4221 74.6245 13.703 75.4135 12.6445 76.3549H12.5938V76.4057C12.2539 76.7065 11.9922 77.0268 11.8242 77.3667C11.2462 78.5386 9.13271 80.2378 7.77343 81.2378C7.63282 79.5386 8.1133 76.4878 8.41406 74.6284C8.74216 72.5073 9.06249 70.519 9.00389 69.1089C8.83203 65.0503 9.60547 62.48 9.77342 61.9487C11.4921 58.6792 18.184 45.9877 22.8434 37.8077C23.0348 37.9874 23.195 38.1866 23.2926 38.417C23.8629 39.7686 25.344 42.8082 27.5039 44.3668ZM8.14089 84.4878C8.28931 84.1987 8.42996 83.8862 8.55105 83.5776L8.76199 82.9878C9.67207 82.3276 11.2816 81.1089 12.4534 79.8276C12.344 81.7885 12.2034 83.5581 12.0432 84.4878H8.14089ZM21.0939 36.8278C16.8052 44.359 10.8237 55.6368 8.53489 59.9998C8.30444 59.7693 8.11301 59.4998 8.12473 59.2615C8.13644 58.9529 8.16379 58.613 8.20285 58.2498C8.31222 56.9998 8.45282 55.4412 8.03097 53.7303C7.97238 53.4998 7.95284 53.2615 7.92941 53.0193C11.6283 46.9099 17.1795 38.4173 18.3004 36.7103C18.8394 36.6517 19.3902 36.5814 19.8395 36.5189C20.152 36.5658 20.6017 36.6676 21.0939 36.8278ZM15.0041 29.0075C15.5157 28.7262 16.1525 28.3278 16.9846 27.7458C18.0236 28.4059 18.8244 28.8356 19.4455 29.1364C19.2853 30.6755 18.3243 31.945 17.2267 31.945C16.1018 31.9489 15.1135 30.6091 15.0041 29.0075ZM15.5939 33.5466C16.0939 33.8083 16.6526 33.9567 17.2228 33.9567C17.8126 33.9567 18.3831 33.8083 18.8947 33.527L18.8635 34.6286C17.9417 34.738 17.0548 34.8396 16.8323 34.8279C16.3128 34.7693 15.8635 34.6286 15.4612 34.4294L15.5939 33.5466ZM17.1916 24.5271C20.1132 24.6364 20.34 26.5076 20.3635 26.7068L20.383 26.8786C20.4221 27.0583 20.4534 27.2497 20.4846 27.4294C19.6839 27.0505 18.4962 26.3591 17.5158 25.7185L16.9455 25.3474L16.3869 25.7381C15.5979 26.2966 14.6485 26.9178 13.965 27.3084C13.9767 27.1169 13.9845 26.9177 14.0041 26.738V26.7068C14.0431 26.3162 14.3637 24.4177 17.1916 24.5271ZM12.0236 28.3083C12.0744 28.6481 12.1643 28.9567 12.3244 29.1872L12.6525 29.5778L13.0627 29.6481C13.1838 30.4372 13.4416 31.1676 13.8127 31.7965L13.6838 32.7574C13.2854 32.1676 12.9455 31.5074 12.6135 30.859C12.1721 29.9997 11.754 29.1988 11.1916 28.6285C11.1603 28.527 11.133 28.4293 11.1017 28.32L12.0236 28.316L12.0236 28.3083ZM7.57443 32.488C7.2229 30.488 5.71469 22.6015 4.95306 18.1602H5.00384C5.44521 18.1602 5.84371 18.0508 6.18354 17.8789C7.03502 21.0781 8.85576 27.8669 9.43381 29.7263C9.10181 30.488 8.49234 31.6091 7.57443 32.488ZM5.28116 16.1092C5.23038 16.1404 5.13271 16.1678 5.01163 16.1678H4.35147C4.22257 16.1678 4.13272 16.1365 4.08194 16.1092L4.74241 10.6051H5.95331L5.29284 16.1092H5.28116ZM2.45334 7.65596L8.52363 7.68721V8.57783C8.52363 8.58955 8.5119 8.59736 8.49238 8.59736L2.42209 8.57783L2.45334 7.65596ZM1.9924 13.4685C1.9924 12.8396 2.13304 12.3669 2.39084 12.1482C2.51974 12.0388 2.65256 12.0075 2.71895 11.9997V15.2302C2.30102 14.7693 1.9924 14.1482 1.9924 13.4685ZM5.18379 30.3985C5.47282 32.0704 5.68379 33.2774 5.74238 33.6368C5.39085 33.7579 5.00407 33.8165 4.60178 33.836C4.24244 32.879 4.63306 31.5587 5.18379 30.3985ZM5.57441 35.7383C8.19528 35.2578 9.82448 33.2383 10.7463 31.5977C11.6876 33.4493 12.9575 36.0079 15.9377 36.668C14.4261 38.9766 11.2461 43.8672 8.40651 48.43C8.56665 47.0394 8.60569 45.5198 8.14479 43.8402C8.98455 43.3284 11.0043 41.8519 12.6839 38.7113C12.9534 38.1995 12.7541 37.5629 12.2229 37.3129C11.7425 37.0941 11.1721 37.2816 10.9338 37.7426C9.70345 40.0434 8.29318 41.2933 7.50415 41.8636C7.20339 40.9535 6.92601 40.0356 6.66431 39.1254C6.27372 37.7973 5.93371 36.6484 5.57441 35.7383ZM31.4844 87.6483H4.30041V86.4764H6.31991L31.4679 86.5271L31.4718 87.6482L31.4844 87.6483ZM27.2032 84.5272H25.0821C24.5313 82.617 24.4024 76.9491 24.4922 72.6752C24.504 72.1244 24.0703 71.6752 23.5235 71.6557C22.9649 71.6361 22.504 72.0775 22.4923 72.6244C22.4337 75.3236 22.383 81.4056 23.0431 84.5154L19.465 84.5037C20.0743 82.7029 20.2931 80.5818 20.3634 79.3435C20.4025 78.7732 19.9415 78.2849 19.3751 78.2849C18.8439 78.2849 18.4064 78.6833 18.3751 79.2146C18.297 80.5037 18.0548 82.8552 17.336 84.4958L14.0743 84.4841C14.3634 82.5232 14.5158 79.3044 14.5861 77.3943C15.5274 76.7849 16.926 76.1443 17.9767 75.6638C20.2773 74.613 21.4884 74.0232 21.8751 73.1326C22.5234 71.6638 21.2656 71.0115 20.8556 70.8045C20.3439 70.5427 20.3438 70.5154 20.3556 70.2927C20.6251 69.6326 23.1644 68.0818 26.4063 66.5232C26.7618 77.8982 27.0235 82.5582 27.2032 84.5272ZM28.9532 54.2692L28.4922 54.0504C28.0938 51.9801 27.5625 49.859 27.3516 49.0113L29.6914 44.4918L31.4531 41.2301L34.7539 43.0387L33.8438 44.8981C33.2657 44.6989 32.6249 44.7262 32.0547 45.1598C31.2462 45.7692 30.1328 47.2887 30.3555 48.5895C30.4453 49.1208 30.7266 49.5114 30.9453 49.82C30.9961 49.8786 31.0234 49.9411 31.0664 49.9919L28.9532 54.2692ZM33.1212 49.6364C32.961 49.2262 32.7422 48.8981 32.5626 48.6559C32.461 48.5153 32.3321 48.3278 32.3243 48.2653C32.2931 48.0036 32.7032 47.2145 33.2032 46.8044L33.6017 47.1325C33.9415 47.4216 34.2735 47.8942 34.2423 48.0622C34.1407 48.5973 33.4844 49.4489 33.1212 49.6364Z" fill="black"/>
</svg>
