<svg width="172" height="166" viewBox="0 0 172 166" fill="none" xmlns="http://www.w3.org/2000/svg">
<path d="M127.636 165.058H44.3645C43.5854 165.058 42.9536 164.426 42.9536 163.646V93.5047C42.9536 92.7255 43.5854 92.0938 44.3645 92.0938H127.636C128.415 92.0938 129.046 92.7255 129.046 93.5047V163.646C129.046 164.426 128.415 165.058 127.636 165.058ZM45.7755 162.235H126.225V94.9156H45.7755V162.235Z" fill="black"/>
<path d="M166.048 156.911H127.636C126.856 156.911 126.225 156.279 126.225 155.5V93.5047C126.225 92.7255 126.856 92.0938 127.636 92.0938H166.048C166.827 92.0938 167.459 92.7255 167.459 93.5047V155.5C167.459 156.279 166.827 156.911 166.048 156.911ZM129.046 154.089H164.637V94.9156H129.046V154.089Z" fill="black"/>
<path d="M127.636 94.9155H44.3645C43.5854 94.9155 42.9536 94.2837 42.9536 93.5045V76.4095C42.9536 75.6303 43.5854 74.9985 44.3645 74.9985H127.636C128.415 74.9985 129.046 75.6303 129.046 76.4095V93.5045C129.046 94.2837 128.415 94.9155 127.636 94.9155ZM45.7755 92.0936H126.225V77.8204H45.7755V92.0936Z" fill="black"/>
<path d="M118.157 77.8196H53.8377C53.0585 77.8196 52.4268 77.1879 52.4268 76.4087V63.0003C52.4268 62.2211 53.0585 61.5894 53.8377 61.5894H118.157C118.936 61.5894 119.568 62.2211 119.568 63.0003V76.4087C119.568 77.1879 118.936 77.8196 118.157 77.8196ZM55.2486 74.9978H116.746V64.4112H55.2486V74.9978Z" fill="black"/>
<path d="M112.213 64.412H59.786C59.1559 64.412 58.602 63.9942 58.4289 63.3885C57.6741 60.7436 57.2915 58.04 57.2915 55.3516C57.2915 39.5127 70.1694 26.6265 85.9993 26.6265C101.829 26.6265 114.707 39.5127 114.707 55.3516C114.707 58.04 114.324 60.744 113.57 63.3885C113.397 63.9942 112.843 64.412 112.213 64.412ZM60.8721 61.5897H111.128C111.631 59.5261 111.886 57.4326 111.886 55.3512C111.886 41.068 100.273 29.4479 85.9997 29.4479C71.726 29.4479 60.1138 41.068 60.1138 55.3512C60.1138 57.4326 60.3686 59.5261 60.8721 61.5897Z" fill="black"/>
<path d="M55.1837 156.911H44.3641C43.5849 156.911 42.9531 156.279 42.9531 155.5V93.5047C42.9531 92.7255 43.5849 92.0938 44.3641 92.0938H55.1837C55.9628 92.0938 56.5946 92.7255 56.5946 93.5047V155.5C56.595 156.279 55.9633 156.911 55.1837 156.911ZM45.7754 154.089H53.7732V94.9156H45.7754V154.089Z" fill="black"/>
<path d="M79.3416 156.911H68.4998C67.7206 156.911 67.0889 156.279 67.0889 155.5V93.5047C67.0889 92.7255 67.7206 92.0938 68.4998 92.0938H79.3416C80.1207 92.0938 80.7525 92.7255 80.7525 93.5047V155.5C80.7525 156.279 80.1207 156.911 79.3416 156.911ZM69.9107 154.089H77.9302V94.9156H69.9107V154.089Z" fill="black"/>
<path d="M103.478 156.911H92.6575C91.8784 156.911 91.2466 156.279 91.2466 155.5V93.5047C91.2466 92.7255 91.8784 92.0938 92.6575 92.0938H103.478C104.257 92.0938 104.888 92.7255 104.888 93.5047V155.5C104.888 156.279 104.257 156.911 103.478 156.911ZM94.0689 154.089H102.067V94.9156H94.0689V154.089Z" fill="black"/>
<path d="M127.636 156.911H116.81C116.031 156.911 115.399 156.279 115.399 155.5V93.5047C115.399 92.7255 116.031 92.0938 116.81 92.0938H127.635C128.414 92.0938 129.046 92.7255 129.046 93.5047V155.5C129.046 156.279 128.415 156.911 127.636 156.911ZM118.221 154.089H126.224V94.9156H118.221V154.089Z" fill="black"/>
<path d="M159.932 142.606H133.768C132.989 142.606 132.357 141.974 132.357 141.195V136.455C132.357 135.676 132.989 135.044 133.768 135.044H159.932C160.711 135.044 161.343 135.676 161.343 136.455V141.195C161.343 141.974 160.711 142.606 159.932 142.606ZM135.179 139.784H158.521V137.866H135.179V139.784Z" fill="black"/>
<path d="M146.85 124.676H137.298C136.519 124.676 135.887 124.044 135.887 123.265V110.102C135.887 109.323 136.519 108.691 137.298 108.691H146.85C147.629 108.691 148.261 109.323 148.261 110.102V123.265C148.261 124.044 147.629 124.676 146.85 124.676ZM138.71 121.854H145.439V111.513H138.71V121.854Z" fill="black"/>
<path d="M156.39 124.676H146.85C146.071 124.676 145.439 124.044 145.439 123.265V110.102C145.439 109.323 146.071 108.691 146.85 108.691H156.39C157.17 108.691 157.801 109.323 157.801 110.102V123.265C157.801 124.044 157.17 124.676 156.39 124.676ZM148.261 121.854H154.979V111.513H148.261V121.854Z" fill="black"/>
<path d="M146.85 137.866H137.298C136.519 137.866 135.887 137.235 135.887 136.456V123.265C135.887 122.486 136.519 121.854 137.298 121.854H146.85C147.629 121.854 148.261 122.486 148.261 123.265V136.456C148.261 137.235 147.629 137.866 146.85 137.866ZM138.71 135.045H145.439V124.676H138.71V135.045Z" fill="black"/>
<path d="M156.39 137.866H146.85C146.071 137.866 145.439 137.235 145.439 136.456V123.265C145.439 122.486 146.071 121.854 146.85 121.854H156.39C157.17 121.854 157.801 122.486 157.801 123.265V136.456C157.801 137.235 157.17 137.866 156.39 137.866ZM148.261 135.045H154.979V124.676H148.261V135.045Z" fill="black"/>
<path d="M44.3647 156.911H5.94658C5.16741 156.911 4.53564 156.279 4.53564 155.5V93.5047C4.53564 92.7255 5.16741 92.0938 5.94658 92.0938H44.3647C45.1439 92.0938 45.7757 92.7255 45.7757 93.5047V155.5C45.7757 156.279 45.1439 156.911 44.3647 156.911ZM7.3575 154.089H42.9538V94.9156H7.3575V154.089Z" fill="black"/>
<path d="M38.2317 142.606H12.0623C11.2831 142.606 10.6514 141.974 10.6514 141.195V136.455C10.6514 135.676 11.2831 135.044 12.0623 135.044H38.2317C39.0108 135.044 39.6426 135.676 39.6426 136.455V141.195C39.6426 141.974 39.0108 142.606 38.2317 142.606ZM13.4732 139.784H36.8203V137.866H13.4732V139.784Z" fill="black"/>
<path d="M25.1444 124.676H15.6092C14.83 124.676 14.1982 124.044 14.1982 123.265V110.102C14.1982 109.323 14.83 108.691 15.6092 108.691H25.1439C25.9231 108.691 26.5549 109.323 26.5549 110.102V123.265C26.5553 124.044 25.9235 124.676 25.1444 124.676ZM17.0201 121.854H23.733V111.513H17.0201V121.854Z" fill="black"/>
<path d="M34.7013 124.676H25.1443C24.3652 124.676 23.7334 124.044 23.7334 123.265V110.102C23.7334 109.323 24.3652 108.691 25.1443 108.691H34.7013C35.4804 108.691 36.1122 109.323 36.1122 110.102V123.265C36.1122 124.044 35.4804 124.676 34.7013 124.676ZM26.5553 121.854H33.2903V111.513H26.5553V121.854Z" fill="black"/>
<path d="M25.1444 137.866H15.6092C14.83 137.866 14.1982 137.235 14.1982 136.456V123.265C14.1982 122.486 14.83 121.854 15.6092 121.854H25.1439C25.9231 121.854 26.5549 122.486 26.5549 123.265V136.456C26.5553 137.235 25.9235 137.866 25.1444 137.866ZM17.0201 135.045H23.733V124.676H17.0201V135.045Z" fill="black"/>
<path d="M34.7013 137.866H25.1443C24.3652 137.866 23.7334 137.235 23.7334 136.456V123.265C23.7334 122.486 24.3652 121.854 25.1443 121.854H34.7013C35.4804 121.854 36.1122 122.486 36.1122 123.265V136.456C36.1122 137.235 35.4804 137.866 34.7013 137.866ZM26.5553 135.045H33.2903V124.676H26.5553V135.045Z" fill="black"/>
<path d="M170.589 165.058H1.41093C0.631766 165.058 0 164.426 0 163.646V155.5C0 154.721 0.631766 154.089 1.41093 154.089H170.589C171.368 154.089 172 154.721 172 155.5V163.646C172 164.426 171.368 165.058 170.589 165.058ZM2.82186 162.235H169.178V156.911H2.82186V162.235Z" fill="black"/>
<path d="M166.048 94.915H127.636C126.856 94.915 126.225 94.2833 126.225 93.5041V84.9246C126.225 84.1454 126.856 83.5137 127.636 83.5137H166.048C166.827 83.5137 167.459 84.1454 167.459 84.9246V93.5041C167.459 94.2833 166.827 94.915 166.048 94.915ZM129.046 92.0932H164.637V86.3355H129.046V92.0932Z" fill="black"/>
<path d="M44.3647 94.915H5.94658C5.16741 94.915 4.53564 94.2833 4.53564 93.5041V84.9246C4.53564 84.1454 5.16741 83.5137 5.94658 83.5137H44.3647C45.1439 83.5137 45.7757 84.1454 45.7757 84.9246V93.5041C45.7757 94.2833 45.1439 94.915 44.3647 94.915ZM7.3575 92.0932H42.9538V86.3355H7.3575V92.0932Z" fill="black"/>
<path d="M58.6695 94.9151H51.3914C50.6122 94.9151 49.9805 94.2833 49.9805 93.5042V84.0281C49.9805 83.249 50.6122 82.6172 51.3914 82.6172H58.6695C59.4487 82.6172 60.0805 83.249 60.0805 84.0281V93.5042C60.0805 94.2833 59.4487 94.9151 58.6695 94.9151ZM52.8023 92.0932H57.2586V85.4391H52.8023V92.0932Z" fill="black"/>
<path d="M70.9971 94.9151H63.7185C62.9393 94.9151 62.3071 94.2833 62.3071 93.5042V84.0281C62.3071 83.249 62.9389 82.6172 63.7185 82.6172H70.9971C71.7762 82.6172 72.408 83.249 72.408 84.0281V93.5042C72.408 94.2833 71.7762 94.9151 70.9971 94.9151ZM65.1294 92.0932H69.5861V85.4391H65.1294V92.0932Z" fill="black"/>
<path d="M83.3186 94.9151H76.0296C75.2504 94.9151 74.6187 94.2833 74.6187 93.5042V84.0281C74.6187 83.249 75.2504 82.6172 76.0296 82.6172H83.3186C84.0978 82.6172 84.7295 83.249 84.7295 84.0281V93.5042C84.73 94.2833 84.0982 94.9151 83.3186 94.9151ZM77.4405 92.0932H81.9077V85.4391H77.4405V92.0932Z" fill="black"/>
<path d="M95.6296 94.9151H88.3684C87.5893 94.9151 86.9575 94.2833 86.9575 93.5042V84.0281C86.9575 83.249 87.5893 82.6172 88.3684 82.6172H95.6296C96.4088 82.6172 97.0406 83.249 97.0406 84.0281V93.5042C97.041 94.2833 96.4088 94.9151 95.6296 94.9151ZM89.7794 92.0932H94.2187V85.4391H89.7794V92.0932Z" fill="black"/>
<path d="M107.958 94.9151H100.679C99.8998 94.9151 99.2681 94.2833 99.2681 93.5042V84.0281C99.2681 83.249 99.8998 82.6172 100.679 82.6172H107.958C108.737 82.6172 109.369 83.249 109.369 84.0281V93.5042C109.369 94.2833 108.737 94.9151 107.958 94.9151ZM102.09 92.0932H106.547V85.4391H102.09V92.0932Z" fill="black"/>
<path d="M120.296 94.9151H113.001C112.222 94.9151 111.59 94.2833 111.59 93.5042V84.0281C111.59 83.249 112.222 82.6172 113.001 82.6172H120.296C121.075 82.6172 121.707 83.249 121.707 84.0281V93.5042C121.707 94.2833 121.075 94.9151 120.296 94.9151ZM114.412 92.0932H118.885V85.4391H114.412V92.0932Z" fill="black"/>
<path fill-rule="evenodd" clip-rule="evenodd" d="M96.776 5.33259C99.7331 6.52547 103.043 6.52547 105.999 5.33259V3.73506C103.024 4.8681 99.7505 4.8681 96.776 3.73506V5.33259ZM105.999 8.22385C103.024 9.35688 99.7505 9.35688 96.776 8.22385V9.60557C99.7331 10.7984 103.043 10.7984 105.999 9.60557V8.22385ZM96.776 7.53065V6.02462C99.7506 7.15765 103.024 7.15765 105.999 6.02462V7.53065C103.042 8.72352 99.732 8.72352 96.776 7.53065ZM87.0934 14.3065V15.8372C90.1703 14.7182 93.5581 14.805 96.5793 16.0859C99.5841 17.3597 102.977 17.3878 106 16.168V14.6397C102.873 15.8314 99.4175 15.7692 96.3314 14.4602C93.3848 13.211 90.0774 13.1571 87.0946 14.3065L87.0934 14.3065ZM87.0934 12.2105C90.0762 11.0622 93.3835 11.115 96.3302 12.3641C99.4175 13.6731 102.872 13.7353 105.999 12.5436V13.9476C102.975 15.1674 99.583 15.1393 96.5781 13.8655C93.5569 12.5847 90.1691 12.4979 87.0922 13.6168V12.2105L87.0934 12.2105ZM87.0934 9.96433C88.551 9.40366 90.0854 9.12802 91.62 9.14093C93.2138 9.15383 94.8054 9.47522 96.3048 10.1074C96.3223 10.1168 96.3398 10.1239 96.3584 10.1297C97.9696 10.8088 99.68 11.1478 101.388 11.1478C102.949 11.1478 104.512 10.864 105.999 10.2975V11.8504C102.976 13.0703 99.5835 13.0421 96.5786 11.7683C93.5574 10.4875 90.1697 10.4007 87.0927 11.5196V9.96317L87.0934 9.96433ZM87.0934 3.40195V9.27491C90.0167 8.21223 93.2252 8.23571 96.1335 9.34411V3.47355C93.2357 2.30415 90.0085 2.27827 87.0934 3.40195ZM86.4868 0.277347C85.8977 -0.316165 84.886 0.1061 84.886 0.945926C84.886 1.81388 85.9641 2.22441 86.5311 1.56757C86.8559 1.18989 86.8361 0.629232 86.488 0.277347H86.4868ZM85.1969 22.279H86.4519L86.4507 2.40836C86.0514 2.58195 85.595 2.58195 85.1957 2.40836V22.279H85.1969ZM81.9477 24.6389H89.7014V24.2096C89.7014 23.5047 89.1275 22.9264 88.4278 22.9264H83.2202C82.5205 22.9264 81.9466 23.5047 81.9466 24.2096V24.6389H81.9477ZM81.0012 26.9988H90.6478V25.2864L81 25.2875V27L81.0012 26.9988ZM87.9434 3.51689C88.1832 3.68696 88.0854 3.63535 88.3613 3.73388C88.2752 4.01656 88.2926 3.9063 88.2856 4.20188C87.9923 4.20657 88.1017 4.19015 87.8211 4.2746C87.7257 3.99545 87.7757 4.09397 87.6092 3.85116C87.8432 3.67405 87.7653 3.75148 87.9434 3.51689ZM87.9434 4.95725C88.1832 5.12733 88.0854 5.07572 88.3613 5.17424C88.2752 5.45692 88.2926 5.34666 88.2856 5.64224C87.9923 5.64693 88.1017 5.63051 87.8211 5.71496C87.7257 5.43581 87.7757 5.53433 87.6092 5.29152C87.8432 5.11441 87.7653 5.19184 87.9434 4.95725ZM87.9434 7.93883C88.1832 8.10891 88.0854 8.0573 88.3613 8.15582C88.2752 8.4385 88.2926 8.32824 88.2856 8.62382C87.9923 8.62851 88.1017 8.61209 87.8211 8.69655C87.7257 8.41739 87.7757 8.51591 87.6092 8.27311C87.8432 8.09599 87.7653 8.17342 87.9434 7.93883ZM90.8481 3.00421C91.0739 3.19188 90.9808 3.1344 91.2486 3.25287C91.1415 3.52733 91.1671 3.41942 91.1368 3.71264C90.8446 3.69387 90.954 3.68566 90.6676 3.74783C90.5943 3.46163 90.6362 3.56485 90.4895 3.30917C90.7363 3.15082 90.6525 3.22237 90.8481 3.00304L90.8481 3.00421ZM90.8481 4.41992C91.0739 4.60759 90.9808 4.55011 91.2486 4.66858C91.1415 4.94304 91.1671 4.83513 91.1368 5.12835C90.8446 5.10958 90.954 5.10137 90.6676 5.16354C90.5943 4.87735 90.6362 4.98056 90.4895 4.72487C90.7363 4.56653 90.6525 4.63808 90.8481 4.41875L90.8481 4.41992ZM90.8481 7.4191C91.0739 7.60676 90.9808 7.54929 91.2486 7.66775C91.1415 7.94222 91.1671 7.83431 91.1368 8.12753C90.8446 8.10876 90.954 8.10055 90.6676 8.16272C90.5943 7.87652 90.6362 7.97974 90.4895 7.72405C90.7363 7.56571 90.6525 7.63726 90.8481 7.41793L90.8481 7.4191ZM87.9434 6.43971C88.1832 6.60978 88.0854 6.55817 88.3613 6.6567C88.2752 6.93938 88.2926 6.82912 88.2856 7.1247C87.9923 7.12939 88.1017 7.11297 87.8211 7.19742C87.7257 6.91827 87.7757 7.01679 87.6092 6.77398C87.8432 6.59687 87.7653 6.6743 87.9434 6.43971ZM90.8481 5.9025C91.0739 6.09016 90.9808 6.03269 91.2486 6.15116C91.1415 6.42562 91.1671 6.31771 91.1368 6.61093C90.8446 6.59216 90.954 6.58395 90.6676 6.64612C90.5943 6.35992 90.6362 6.46314 90.4895 6.20745C90.7363 6.04911 90.6525 6.12066 90.8481 5.90133L90.8481 5.9025ZM89.4836 3.2071C89.7235 3.37718 89.6257 3.32557 89.9016 3.42409C89.8154 3.70677 89.8329 3.59651 89.8259 3.89209C89.5325 3.89679 89.642 3.88036 89.3614 3.96482C89.2659 3.68566 89.316 3.78419 89.1495 3.54138C89.3835 3.36427 89.3055 3.44169 89.4836 3.2071ZM89.4836 4.60053C89.7235 4.77061 89.6257 4.719 89.9016 4.81752C89.8154 5.1002 89.8329 4.98994 89.8259 5.28552C89.5325 5.29021 89.642 5.27379 89.3614 5.35824C89.2659 5.07909 89.316 5.17761 89.1495 4.9348C89.3835 4.75769 89.3055 4.83512 89.4836 4.60053ZM89.4836 7.58562C89.7235 7.7557 89.6257 7.70409 89.9016 7.80262C89.8154 8.08529 89.8329 7.97504 89.8259 8.27062C89.5325 8.27531 89.642 8.25889 89.3614 8.34334C89.2659 8.06418 89.316 8.16271 89.1495 7.9199C89.3835 7.74279 89.3055 7.82022 89.4836 7.58562ZM89.4836 6.08428C89.7235 6.25435 89.6257 6.20274 89.9016 6.30127C89.8154 6.58395 89.8329 6.47369 89.8259 6.76927C89.5325 6.77396 89.642 6.75754 89.3614 6.84199C89.2659 6.56284 89.316 6.66136 89.1495 6.41855C89.3835 6.24144 89.3055 6.31887 89.4836 6.08428ZM92.4825 3.07799C92.6362 3.07799 92.7596 3.20349 92.7596 3.35714C92.7596 3.5108 92.635 3.6363 92.4825 3.6363C92.33 3.6363 92.2054 3.5108 92.2054 3.35714C92.2054 3.20349 92.33 3.07799 92.4825 3.07799ZM92.4825 4.47141C92.6362 4.47141 92.7596 4.59692 92.7596 4.75057C92.7596 4.90423 92.635 5.02973 92.4825 5.02973C92.33 5.02973 92.2054 4.90423 92.2054 4.75057C92.2054 4.59692 92.33 4.47141 92.4825 4.47141ZM92.4825 5.95516C92.6362 5.95516 92.7596 6.08067 92.7596 6.23432C92.7596 6.38797 92.635 6.51348 92.4825 6.51348C92.33 6.51348 92.2054 6.38797 92.2054 6.23432C92.2054 6.08067 92.33 5.95516 92.4825 5.95516ZM92.4825 7.45651C92.6362 7.45651 92.7596 7.58201 92.7596 7.73567C92.7596 7.88932 92.635 8.01482 92.4825 8.01482C92.33 8.01482 92.2054 7.88932 92.2054 7.73567C92.2054 7.58201 92.33 7.45651 92.4825 7.45651ZM95.1869 3.5437C95.3406 3.5437 95.464 3.66921 95.464 3.82286C95.464 3.97651 95.3394 4.10202 95.1869 4.10202C95.0344 4.10202 94.9099 3.97651 94.9099 3.82286C94.9099 3.66921 95.0344 3.5437 95.1869 3.5437ZM95.1869 4.93713C95.3406 4.93713 95.464 5.06264 95.464 5.21629C95.464 5.36994 95.3394 5.49545 95.1869 5.49545C95.0344 5.49545 94.9099 5.36994 94.9099 5.21629C94.9099 5.06264 95.0344 4.93713 95.1869 4.93713ZM95.1869 6.42088C95.3406 6.42088 95.464 6.54638 95.464 6.70004C95.464 6.85369 95.3394 6.9792 95.1869 6.9792C95.0344 6.9792 94.9099 6.85369 94.9099 6.70004C94.9099 6.54638 95.0344 6.42088 95.1869 6.42088ZM95.1869 7.92223C95.3406 7.92223 95.464 8.04773 95.464 8.20138C95.464 8.35504 95.3394 8.48054 95.1869 8.48054C95.0344 8.48054 94.9099 8.35504 94.9099 8.20138C94.9099 8.04773 95.0344 7.92223 95.1869 7.92223ZM93.8784 3.14615C94.032 3.14615 94.1555 3.27165 94.1555 3.4253C94.1555 3.57896 94.0309 3.70446 93.8784 3.70446C93.7259 3.70446 93.6013 3.57896 93.6013 3.4253C93.6013 3.27165 93.7259 3.14615 93.8784 3.14615ZM93.8784 4.53958C94.032 4.53958 94.1555 4.66508 94.1555 4.81873C94.1555 4.97239 94.0309 5.09789 93.8784 5.09789C93.7259 5.09789 93.6013 4.97239 93.6013 4.81873C93.6013 4.66508 93.7259 4.53958 93.8784 4.53958ZM93.8784 6.02333C94.032 6.02333 94.1555 6.14883 94.1555 6.30248C94.1555 6.45614 94.0309 6.58164 93.8784 6.58164C93.7259 6.58164 93.6013 6.45614 93.6013 6.30248C93.6013 6.14883 93.7259 6.02333 93.8784 6.02333ZM93.8784 7.52467C94.032 7.52467 94.1555 7.65017 94.1555 7.80383C94.1555 7.95748 94.0309 8.08298 93.8784 8.08298C93.7259 8.08298 93.6013 7.95748 93.6013 7.80383C93.6013 7.65017 93.7259 7.52467 93.8784 7.52467Z" fill="black"/>
</svg>
